# xmcd
#
# Track frame offsets: 
#        150
#        10075
#        24200
#        41925
#        52675
#        66300
#        80300
#        97700
#        112700
#        132500
#        147300
#        158125
#        172713
#        180800
#
# Disc length: 2596 seconds
#
# Revision: 2
# Processed by: cddbd v1.5.2PL0 Copyright (c) Steve Scherf et al.
# Submitted via: ExactAudioCopy v1.1
#
DISCID=980a220e
DTITLE=The Grizzlies - Along The Trail
DYEAR=1993
DGENRE=Country
TTITLE0=Desert Wind
TTITLE1=Ballad Of The Maples (The Yodeling Song)
TTITLE2=Overland Overture
TTITLE3=The Lady In Church (It Doesn't Always Pay To Be Considerate)
TTITLE4=Grandma's Funeral Pie
TTITLE5=Coyodelote
TTITLE6=Diaper Rodeo
TTITLE7=Westward Ho!  Go The Wagons!
TTITLE8=Ghosts Of The Prairie
TTITLE9=Dust
TTITLE10=Ride Cowboy Ride
TTITLE11=Animal Song (Prairie Rap)
TTITLE12="William Tell" Yodelture
TTITLE13=The Bra
EXTD=
EXTT0=
EXTT1=
EXTT2=
EXTT3=
EXTT4=
EXTT5=
EXTT6=
EXTT7=
EXTT8=
EXTT9=
EXTT10=
EXTT11=
EXTT12=
EXTT13=
PLAYORDER=
